<?xml version="1.0" encoding="UTF-8" standalone="no"?>
<!DOCTYPE svg PUBLIC "-//W3C//DTD SVG 1.1//EN" "http://www.w3.org/Graphics/SVG/1.1/DTD/svg11.dtd">
<svg width="100%" height="100%" viewBox="0 0 3000 3000" version="1.1" xmlns="http://www.w3.org/2000/svg" xmlns:xlink="http://www.w3.org/1999/xlink" xml:space="preserve" xmlns:serif="http://www.serif.com/" style="fill-rule:evenodd;clip-rule:evenodd;stroke-linecap:round;stroke-linejoin:round;stroke-miterlimit:1.5;">
    <g id="Layer1">
        <g transform="matrix(1.05882,0,0,1.03506,-98.3197,-33.6836)">
            <rect x="0.442" y="-9.823" width="2996" height="3011.84" style="fill:rgb(146,72,227);"/>
        </g>
        <g transform="matrix(1.21632,0,0,1.20452,-548.537,-429.245)">
            <circle cx="1684.21" cy="1601.67" r="1066.78" style="fill:rgb(176,155,217);"/>
        </g>
        <g transform="matrix(1,0,0,1,-4.19574,16.7833)">
            <path d="M1215.67,1054.66L1147.67,972.66C1147.67,972.66 1160.67,854.66 1147.67,812.66C1134.67,770.66 1129.67,719.66 983.671,725.66C837.671,731.66 698.671,721.66 650.671,730.66C602.671,739.66 592.671,759.66 574.671,853.66C556.671,947.66 564.671,1030.66 577.671,1073.66C590.671,1116.66 606.671,1115.66 658.671,1122.66C710.671,1129.66 988.108,1137.77 1071.67,1127.66C1147.09,1118.54 1135.67,1027.66 1135.67,1027.66L1215.67,1054.66Z" style="fill:white;stroke:black;stroke-width:7.23px;"/>
            <path d="M835.671,826.327C835.671,826.327 877.848,764.07 939.671,829.327C943.471,825.66 1006.87,841.486 1004.67,898.599C1009.07,901.112 1039.95,1017.26 938.196,1035.01C932.446,1032.51 887.696,1089.76 831.196,1052.01C826.696,1051.51 696.446,1076.4 700.696,975.012C699.696,974.87 655.196,921.269 707.446,888.37C708.446,882.722 696.446,823.472 755.696,823.722C759.696,820.722 810.171,807.327 835.671,826.327Z" style="fill:rgb(202,114,158);stroke:black;stroke-width:7.23px;"/>
            <path d="M856.807,1063.36C856.807,1063.36 879.571,984.472 872.071,933.972C864.571,883.472 838.571,826.972 838.571,826.972" style="fill:none;stroke:black;stroke-width:7.23px;"/>
        </g>
        <path d="M894.944,974.247C894.944,974.247 907.611,948.913 923.611,964.247" style="fill:none;stroke:black;stroke-width:4.17px;"/>
        <g transform="matrix(1,0,0,1,-96.6667,63.3333)">
            <path d="M894.944,974.247C894.944,974.247 907.611,948.913 923.611,964.247" style="fill:none;stroke:black;stroke-width:4.17px;"/>
        </g>
        <g transform="matrix(0.901209,-0.433386,0.433386,0.901209,-498.827,469.578)">
            <path d="M894.944,974.247C894.944,974.247 907.611,948.913 923.611,964.247" style="fill:none;stroke:black;stroke-width:4.17px;"/>
        </g>
        <g transform="matrix(0.815868,0.578238,-0.578238,0.815868,603.123,-291.097)">
            <path d="M894.944,974.247C894.944,974.247 907.611,948.913 923.611,964.247" style="fill:none;stroke:black;stroke-width:4.17px;"/>
        </g>
        <path d="M916.481,959.812C918.157,954.227 934.056,936.32 945.611,958.913" style="fill:none;stroke:black;stroke-width:4.17px;"/>
        <g transform="matrix(1,0,0,1,-115,-57)">
            <path d="M907.148,953.812C909.524,940.522 935.137,924.428 945.611,958.913" style="fill:none;stroke:black;stroke-width:4.17px;"/>
        </g>
        <g transform="matrix(0.653346,0,0,0.903354,325.467,29.6751)">
            <path d="M907.148,953.812C909.524,940.522 935.137,924.428 945.611,958.913" style="fill:none;stroke:black;stroke-width:5.29px;"/>
        </g>
        <g transform="matrix(1,0,0,1,-4.19574,16.7833)">
            <g opacity="0.57">
                <path d="M1114.15,1609.31C1114.15,1609.31 1030.68,1784.09 1025.15,1796.31C1019.63,1808.52 1028.15,2375.3 1028.15,2375.3L2084.15,2375.3L2078.15,1793.31C2078.15,1793.31 2043.15,1590.31 2035.15,1590.31C2027.15,1590.31 1114.15,1609.31 1114.15,1609.31Z" style="fill:rgb(222,218,220);stroke:black;stroke-width:7.23px;"/>
                <path d="M1028.15,1799.31C1028.15,1799.31 2084.65,1800.31 2078.15,1793.31" style="fill:none;stroke:black;stroke-width:7.23px;"/>
            </g>
        </g>
        <rect x="1063.1" y="1858.34" width="980" height="498" style="fill:rgb(217,211,228);"/>
        <path d="M1147.1,1654.34L1085.1,1772.34L2029.1,1764.34L2015.1,1642.34L1147.1,1654.34Z" style="fill:rgb(217,211,228);"/>
        <path d="M1185.1,1684.34L1165.1,1728.34L1955.1,1714.34L1959.1,1678.34L1185.1,1684.34Z" style="fill:rgb(224,220,232);"/>
        <rect x="1135.1" y="1932.34" width="822" height="328" style="fill:rgb(224,220,232);"/>
        <g transform="matrix(0.651079,0,0,0.651079,1126.92,775.809)">
            <path d="M944.111,1867C944.111,1771.1 866.256,1693.25 770.361,1693.25L422.861,1693.25C326.966,1693.25 249.111,1771.1 249.111,1867L249.111,2214.5C249.111,2310.39 326.966,2388.25 422.861,2388.25L770.361,2388.25C866.256,2388.25 944.111,2310.39 944.111,2214.5L944.111,1867Z" style="fill:rgb(146,72,227);stroke:rgb(242,242,244);stroke-width:42.65px;"/>
        </g>
        <path d="M1435.77,1516.19C1435.77,1516.19 1454.77,1539.19 1472.77,1570.19C1490.77,1601.19 1517.77,1619.19 1515.77,1639.19C1513.77,1659.19 1503.77,1697.19 1489.77,1723.19C1475.77,1749.19 1439.77,1778.19 1423.77,1782.19C1407.77,1786.19 1372.77,1790.19 1372.77,1790.19L1435.77,1516.19Z" style="fill:rgb(146,72,227);fill-opacity:0.5;"/>
        <g transform="matrix(1,0,0,1,-4.19574,16.7833)">
            <path d="M1345.6,1200.1C1345.6,1200.1 1284.6,1321.1 1277.6,1389.1C1270.6,1457.1 1273.6,1608.1 1283.6,1668.1C1293.6,1728.1 1284.85,1756.6 1318.85,1766.6C1352.85,1776.6 1374.85,1781.6 1397.35,1754.6C1419.85,1727.6 1423.35,1726.1 1429.85,1692.6C1436.35,1659.1 1441.85,1599.6 1441.85,1599.6C1441.85,1599.6 1879.85,1601.6 1888.85,1591.1C1897.85,1580.6 1891.85,1563.6 1900.35,1527.1C1908.85,1490.6 1922.85,1420.1 1924.85,1410.6C1926.85,1401.1 1929.85,1383.6 1929.85,1383.6C1929.85,1383.6 1952.85,1360.1 1964.35,1336.1C1975.85,1312.1 1976.85,1296.6 1989.85,1258.6C2002.85,1220.6 2015.35,1189.1 2024.35,1157.6C2033.35,1126.1 2051.85,1089.6 2054.85,1070.1C2057.85,1050.6 2060.85,1044.1 2060.85,1044.1C2060.85,1044.1 2066.35,1042.6 2071.85,1033.6C2077.35,1024.6 2076.35,1009.6 2076.35,1009.6L2063.85,1007.1L2060.35,992.598C2060.35,992.598 2054.85,978.598 2046.85,978.598C2038.85,978.598 2028.85,982.098 2028.85,982.098C2028.85,982.098 2021.85,970.098 2012.85,968.098C2003.85,966.098 1987.35,974.598 1987.35,974.598C1987.35,974.598 1989.85,966.098 1983.35,956.598C1976.85,947.098 1967.35,941.098 1958.85,949.098C1950.35,957.098 1946.35,985.598 1946.35,985.598C1946.35,985.598 1943.35,981.598 1929.85,984.598C1916.35,987.598 1910.85,1004.6 1912.85,1014.1C1914.85,1023.6 1923.35,1041.6 1928.35,1047.1C1933.35,1052.6 1932.85,1062.6 1932.85,1062.6C1932.85,1062.6 1889.35,1135.6 1872.85,1174.6C1856.35,1213.6 1830.35,1296.6 1830.35,1296.6L1824.85,1206.6C1824.85,1206.6 1863.85,1179.1 1874.35,1137.6C1884.85,1096.1 1890.35,1068.6 1888.85,1049.6C1887.35,1030.6 1881.85,998.598 1881.85,998.598C1881.85,998.598 1980.27,949.598 1922.27,866.098C1864.27,782.598 1774.27,834.598 1765.77,838.098C1757.27,841.598 1665.25,790.098 1577.75,803.098C1490.25,816.098 1395.75,876.598 1392.75,879.098C1389.75,881.598 1307.25,844.098 1262.75,914.598C1218.25,985.098 1254.91,1059.3 1312.75,1077.1C1312.75,1087.6 1310.45,1167.1 1345.6,1200.1Z" style="fill:rgb(161,144,143);stroke:black;stroke-width:7.23px;"/>
            <path d="M1830.35,1296.6C1760.81,1409.6 1274.74,1346.62 1277.6,1389.1C1278.16,1397.45 1273.26,1417.17 1273.04,1450.98C1272.59,1520.38 1276.87,1627.75 1283.6,1668.1C1293.6,1728.1 1284.85,1756.6 1318.85,1766.6C1352.85,1776.6 1374.85,1781.6 1397.35,1754.6C1419.85,1727.6 1423.35,1726.1 1429.85,1692.6C1436.35,1659.1 1441.85,1599.6 1441.85,1599.6C1441.85,1599.6 1879.85,1601.6 1888.85,1591.1C1897.85,1580.6 1891.85,1563.6 1900.35,1527.1C1908.85,1490.6 1922.85,1420.1 1924.85,1410.6C1926.85,1401.1 1929.85,1383.6 1929.85,1383.6C1929.85,1383.6 1952.85,1360.1 1964.35,1336.1C1975.85,1312.1 1976.85,1296.6 1989.85,1258.6C2002.85,1220.6 2015.35,1189.1 2024.35,1157.6C2033.35,1126.1 2051.85,1089.6 2054.85,1070.1C2057.85,1050.6 2060.85,1044.1 2060.85,1044.1C2060.85,1044.1 2066.35,1042.6 2071.85,1033.6C2077.35,1024.6 2076.35,1009.6 2076.35,1009.6L2063.85,1007.1L2060.35,992.598C2060.35,992.598 2054.85,978.598 2046.85,978.598C2038.85,978.598 2028.85,982.098 2028.85,982.098C2028.85,982.098 2021.85,970.098 2012.85,968.098C2003.85,966.098 1987.35,974.598 1987.35,974.598C1987.35,974.598 1989.85,966.098 1983.35,956.598C1976.85,947.098 1967.35,941.098 1958.85,949.098C1950.35,957.098 1946.35,985.598 1946.35,985.598C1946.35,985.598 1943.35,981.598 1929.85,984.598C1916.35,987.598 1910.85,1004.6 1912.85,1014.1C1914.85,1023.6 1923.35,1041.6 1928.35,1047.1C1933.35,1052.6 1932.85,1062.6 1932.85,1062.6C1932.85,1062.6 1889.35,1135.6 1872.85,1174.6C1856.35,1213.6 1830.35,1296.6 1830.35,1296.6Z" style="fill:rgb(144,120,102);stroke:black;stroke-width:7.23px;"/>
            <g transform="matrix(1,0,0,1,4.19574,-16.7833)">
                <path d="M1902.98,1389.32C1902.98,1389.32 1899.31,1388.32 1890.98,1394.99C1882.64,1401.66 1873.98,1410.66 1872.64,1423.66C1871.31,1436.66 1870.64,1451.66 1870.64,1451.66C1870.64,1451.66 1885.64,1461.32 1887.98,1450.32C1890.31,1439.32 1890.98,1428.66 1891.64,1418.66C1892.31,1408.66 1896.98,1407.99 1900.98,1406.99C1909.59,1404.84 1906.98,1391.99 1902.98,1389.32C1898.98,1386.66 1902.98,1389.32 1902.98,1389.32Z" style="fill:rgb(146,72,227);fill-opacity:0.5;"/>
            </g>
            <g transform="matrix(1,0,0,1,4.19574,-16.7833)">
                <path d="M1440.35,1620.02C1433.29,1587.55 1432.46,1554.44 1432.52,1520.19L1508.68,1620.52L1484.52,1621.02L1457.52,1620.86L1440.35,1620.02Z" style="fill:rgb(146,72,227);fill-opacity:0.53;"/>
            </g>
            <g transform="matrix(1,0,0,1,4.19574,-16.7833)">
                <path d="M1316.06,1780.25L1326.06,1740.25" style="fill:none;stroke:black;stroke-width:7.23px;"/>
            </g>
            <g transform="matrix(1,0,0,1,4.19574,-16.7833)">
                <path d="M1385.39,1777.58L1385.39,1745.58" style="fill:none;stroke:black;stroke-width:7.23px;"/>
            </g>
            <g transform="matrix(1,0,0,1,4.19574,-16.7833)">
                <path d="M1352.73,1784.92L1357.39,1752.25" style="fill:none;stroke:black;stroke-width:7.23px;"/>
            </g>
            <path d="M1438.85,1599.85L1432.37,1504.35" style="fill:none;stroke:black;stroke-width:7.23px;"/>
            <g transform="matrix(1,0,0,1,4.19574,-16.7833)">
                <path d="M1983.89,992.251C1983.89,992.251 1983.56,1021.08 2006.89,1015.08C2030.23,1009.08 2026.73,998.251 2026.73,998.251C2026.73,998.251 2026.39,1007.42 2031.06,1022.75C2035.73,1038.08 2056.06,1022.92 2056.06,1022.92C2056.06,1022.92 2050.56,1031.25 2047.23,1043.25C2043.89,1055.25 2063.72,1054.42 2063.72,1054.42" style="fill:none;stroke:black;stroke-width:7.23px;"/>
            </g>
            <path d="M1903.75,1371.1C1903.75,1371.1 1867.25,1376.1 1872.25,1434.6" style="fill:none;stroke:black;stroke-width:7.23px;"/>
        </g>
        <path d="M1582.31,966.99L1623.31,962.656L1620.98,947.656L1586.31,950.323L1582.31,966.99Z" style="fill:rgb(146,72,227);fill-opacity:0.5;"/>
        <path d="M1559.98,1337.66L1553.31,1301.32C1553.31,1301.32 1391.64,1288.32 1360.31,1261.66C1328.98,1234.99 1330.64,1247.99 1330.64,1247.99L1318.31,1274.99C1318.31,1274.99 1329.31,1310.66 1405.64,1323.66C1481.98,1336.66 1535.31,1330.99 1544.98,1337.66C1554.64,1344.32 1562.64,1341.32 1562.64,1341.32L1559.98,1337.66Z" style="fill:rgb(146,72,227);fill-opacity:0.5;"/>
        <path d="M1820.31,1274.32C1820.31,1274.32 1687.98,1315.32 1665.64,1328.99C1643.31,1342.66 1626.31,1359.32 1626.31,1359.32L1621.31,1354.32L1630.98,1297.66C1630.98,1297.66 1677.31,1307.32 1698.64,1298.32C1719.98,1289.32 1783.98,1267.99 1798.31,1259.66C1812.64,1251.32 1817.98,1251.99 1817.98,1251.99L1820.31,1274.32Z" style="fill:rgb(146,72,227);fill-opacity:0.5;"/>
        <g>
            <path d="M1337.77,1214.45L1324.43,1239.12C1324.43,1239.12 1384.43,1277.79 1422.43,1289.12C1460.43,1300.45 1554.43,1300.45 1554.43,1300.45C1554.43,1300.45 1553.93,1297.45 1555.6,1312.45C1557.27,1327.45 1566.6,1358.45 1566.6,1358.45C1566.6,1358.45 1555.27,1393.45 1545.27,1421.12C1535.27,1448.79 1524.93,1489.79 1523.6,1537.79C1522.27,1585.79 1523.6,1618.12 1523.6,1618.12L1696.27,1614.12C1696.27,1614.12 1673.6,1469.79 1652.6,1424.79C1631.6,1379.79 1617.93,1355.12 1617.93,1355.12C1617.93,1355.12 1627.27,1322.79 1628.27,1311.79C1629.27,1300.79 1630.85,1297.37 1630.85,1297.37C1630.85,1297.37 1658.27,1313.12 1730.93,1287.45C1803.6,1261.79 1825.93,1243.45 1825.93,1243.45L1824.27,1225.95C1824.27,1225.95 1814.27,1226.12 1769.93,1236.79C1725.6,1247.45 1696.6,1258.12 1675.27,1258.79C1653.93,1259.45 1627.93,1261.79 1627.93,1261.79C1627.93,1261.79 1627.27,1256.12 1621.93,1255.12C1616.6,1254.12 1582.93,1253.45 1572.27,1255.79C1561.6,1258.12 1554.27,1264.12 1554.27,1264.12C1554.27,1264.12 1545.6,1264.79 1493.27,1260.79C1440.93,1256.79 1415.6,1255.45 1393.93,1245.79C1372.27,1236.12 1337.77,1214.45 1337.77,1214.45Z" style="fill:rgb(197,102,150);stroke:black;stroke-width:7.23px;"/>
            <path d="M1567.93,1359.79C1567.93,1359.79 1608.27,1364.45 1617.6,1357.79" style="fill:none;stroke:black;stroke-width:7.23px;"/>
            <path d="M1577.73,1360.68L1572.35,1386.45" style="fill:none;stroke:black;stroke-width:7.23px;"/>
            <path d="M1590.35,1362.45C1590.02,1362.45 1590.18,1364.64 1590.18,1365.29C1590.18,1368.26 1590.35,1371.15 1590.35,1374.12C1590.35,1381.66 1589.68,1388.97 1589.68,1396.45" style="fill:none;stroke:black;stroke-width:7.23px;"/>
            <path d="M1599.52,1362.29C1599.52,1364.73 1600.52,1367.37 1600.52,1369.95C1600.52,1370.52 1600.75,1372.45 1600.18,1372.45" style="fill:none;stroke:black;stroke-width:7.23px;"/>
            <path d="M1611.52,1361.79C1612.72,1362.99 1613.22,1364.7 1614.02,1366.29C1616.49,1371.24 1617.39,1376.28 1618.68,1381.45C1619.13,1383.25 1619.85,1385.28 1619.85,1387.12C1619.85,1389.97 1620.68,1392.76 1620.68,1395.62C1620.68,1396.22 1621.11,1399.53 1620.68,1399.95C1620.57,1400.06 1620.35,1399.7 1620.35,1399.62" style="fill:none;stroke:black;stroke-width:7.23px;"/>
            <path d="M1553.93,1297.79C1553.93,1297.79 1550.6,1272.87 1554.27,1263.2" style="fill:none;stroke:black;stroke-width:7.23px;"/>
            <path d="M1626.93,1260.12C1626.93,1260.12 1631.27,1266.12 1630.6,1281.45C1629.93,1296.79 1629.18,1307.79 1629.18,1307.79" style="fill:none;stroke:black;stroke-width:7.23px;"/>
            <g transform="matrix(1,0,0,1,-4.6,-5.8)">
                <circle cx="1991.55" cy="1055" r="27.7" style="fill:rgb(197,102,150);stroke:black;stroke-width:7.23px;"/>
            </g>
            <g transform="matrix(1,0,0,1,-7.5,6)">
                <ellipse cx="1939.15" cy="1018.3" rx="10.7" ry="11.2" style="fill:rgb(197,102,150);stroke:black;stroke-width:7.23px;"/>
            </g>
            <g transform="matrix(1,0,0,1,-3.00003,-4)">
                <ellipse cx="1967.25" cy="994.403" rx="10.4" ry="11.7" style="fill:rgb(197,102,150);stroke:black;stroke-width:7.23px;"/>
            </g>
        </g>
        <g>
            <path d="M1304.87,1045.1L1379.37,918.853C1379.37,918.853 1310.58,892.15 1281.37,943.603C1276.12,952.853 1264.37,1003.14 1304.87,1045.1Z" style="fill:rgb(197,102,150);stroke:black;stroke-width:7.23px;"/>
            <path d="M1799.62,860.569L1863.37,973.819C1863.37,973.819 1894.13,944.992 1889.12,910.569C1883.97,875.133 1865.3,862.62 1849.87,853.569C1834.35,844.459 1799.62,860.569 1799.62,860.569Z" style="fill:rgb(197,102,150);stroke:black;stroke-width:7.23px;"/>
        </g>
        <g transform="matrix(1,0,0,1,0.999985,-7.00001)">
            <path d="M1514.35,1090.6C1514.35,1090.6 1565.85,1120.6 1616.85,1107.1C1667.85,1093.6 1694.85,1083.1 1694.85,1083.1C1694.85,1083.1 1712.35,1091.6 1726.35,1091.1C1740.35,1090.6 1756.85,1088.6 1756.85,1088.6C1769.93,1092.52 1730.06,1174.89 1698.35,1204.1C1661.56,1237.98 1525.96,1279.1 1471.85,1176.1C1421.7,1080.64 1450.85,1103.1 1450.85,1103.1C1474.38,1110.78 1496.15,1109.59 1514.35,1090.6Z" style="fill:rgb(55,54,79);stroke:black;stroke-width:7.23px;"/>
            <path d="M1487.85,1191.1C1487.85,1191.1 1553.35,1162.6 1598.85,1166.6C1644.35,1170.6 1704.85,1194.1 1704.85,1194.1C1707.05,1195.04 1677.7,1231.14 1624.2,1238.49C1567.61,1246.26 1501.32,1231.85 1487.85,1191.1Z" style="fill:rgb(197,102,150);stroke:black;stroke-width:7.23px;"/>
            <path d="M1605.85,1107.6L1605.85,1090.1C1579.74,1079.93 1563.12,1063.93 1554.35,1043.1C1582.83,1008.96 1615.53,1003.07 1653.35,1031.6C1645.66,1060.9 1626.9,1076.84 1605.85,1090.1" style="fill:rgb(197,102,150);stroke:black;stroke-width:7.23px;"/>
            <path d="M1608.68,1068.61C1608.68,1068.61 1619.43,1043.61 1626.93,1043.86C1634.43,1044.11 1632.43,1051.36 1632.43,1051.36C1626.31,1060.19 1617.48,1065.79 1608.68,1068.61Z"/>
            <path d="M1600.18,1070.11C1597.26,1072.44 1576.43,1058.36 1581.93,1049.86C1585.07,1045.01 1595.93,1054.36 1595.93,1054.36L1600.18,1070.11Z"/>
        </g>
        <g>
            <g transform="matrix(1.19815,0.176316,-0.145588,0.989345,-192.657,-267.753)">
                <ellipse cx="1512.81" cy="948.688" rx="85.5" ry="166.5" style="fill:rgb(146,72,227);stroke:black;stroke-width:6.51px;"/>
            </g>
            <g transform="matrix(1.20624,-0.10796,0.089145,0.996019,-186.572,143.97)">
                <ellipse cx="1512.81" cy="948.688" rx="85.5" ry="166.5" style="fill:rgb(146,72,227);stroke:black;stroke-width:6.51px;"/>
            </g>
            <g transform="matrix(1.01305,0.149076,-0.129424,0.879501,73.9029,-124.455)">
                <ellipse cx="1512.81" cy="948.688" rx="85.5" ry="166.5" style="fill:rgb(161,144,143);stroke:black;stroke-width:7.54px;"/>
            </g>
            <g transform="matrix(1.01608,-0.126729,0.110023,0.882138,81.6476,281.783)">
                <ellipse cx="1512.81" cy="948.688" rx="85.5" ry="166.5" style="fill:rgb(161,144,143);stroke:black;stroke-width:7.54px;"/>
            </g>
            <path d="M1588.43,925.25L1617.93,922.25L1618.43,949.25L1585.43,952L1588.43,925.25Z" style="fill:rgb(146,72,227);stroke:black;stroke-width:7.23px;"/>
            <path d="M1552.35,823.598C1551.17,819.469 1419.36,864.892 1407.85,885.598C1405.35,873.098 1442.85,796.098 1482.35,791.598C1516.85,775.598 1552.35,823.598 1552.35,823.598Z" style="fill:rgb(176,155,217);stroke:black;stroke-width:7.23px;"/>
            <path d="M1653.85,822.098C1653.85,822.098 1765.35,833.098 1769.85,852.598C1777.85,848.098 1788.35,845.598 1788.35,845.598C1792.42,838.128 1760.33,793.233 1732.35,782.598C1710.08,774.134 1688.26,778.165 1671.35,797.598C1659.74,810.933 1653.85,822.098 1653.85,822.098Z" style="fill:rgb(176,155,217);stroke:black;stroke-width:7.23px;"/>
            <path d="M1645.86,849.623C1648.11,841.241 1650.87,833.152 1655.19,825.956C1655.43,825.245 1731.01,836.967 1741.75,840.678C1752.03,844.232 1762.64,847.857 1765.19,850.789C1767,852.865 1765.8,854.067 1767.86,855.512C1769.98,856.999 1769.36,857.012 1771.36,855.678C1773.36,854.345 1787.36,849.623 1787.36,849.623L1796.86,871.29C1796.86,871.29 1662.53,844.956 1645.86,849.623Z" style="fill:rgb(146,72,227);fill-opacity:0.5;"/>
            <path d="M1401.98,915.99L1560.84,854.123C1558.56,845.39 1554.62,835.856 1549.14,827.123C1549.14,827.123 1514.21,837.123 1499.64,843.19C1485.13,849.235 1432.38,871.39 1425.38,875.723C1418.38,880.056 1407.71,890.856 1407.71,890.856L1401.98,915.99Z" style="fill:rgb(146,72,227);fill-opacity:0.5;"/>
        </g>
        <g>
            <path d="M1458.39,878.63C1458.39,878.63 1449.06,864.63 1473.72,855.963C1498.39,847.296 1524.03,848.845 1526.39,860.63C1529.06,873.963 1514.39,883.963 1503.72,877.296C1493.06,870.63 1482.72,882.963 1472.72,886.296C1462.72,889.63 1458.39,878.63 1458.39,878.63Z"/>
            <g transform="matrix(0.999164,0.040886,-0.040886,0.999164,266.708,-66.2843)">
                <path d="M1459.06,872.296C1459.06,872.296 1450.72,860.296 1475.39,851.63C1500.06,842.963 1524.03,860.178 1526.39,871.963C1529.06,885.296 1512.39,888.63 1501.72,881.963C1491.06,875.296 1479.39,879.963 1469.39,883.296C1459.39,886.63 1459.06,872.296 1459.06,872.296Z"/>
            </g>
        </g>
        <g>
            <g transform="matrix(1,0,0,1.15859,-25.5,-159.898)">
                <circle cx="1742.56" cy="973.564" r="56.75" style="fill:white;stroke:black;stroke-width:6.68px;"/>
            </g>
            <g transform="matrix(1,0,0,1.15859,-260,-151.898)">
                <circle cx="1742.56" cy="973.564" r="56.75" style="fill:white;stroke:black;stroke-width:6.68px;"/>
            </g>
            <g transform="matrix(0.685314,0,0,0.793998,291,221.866)">
                <circle cx="1742.56" cy="973.564" r="56.75" style="stroke:black;stroke-width:9.75px;"/>
            </g>
            <g transform="matrix(0.685314,0,0,0.793998,523.5,213.866)">
                <circle cx="1742.56" cy="973.564" r="56.75" style="stroke:black;stroke-width:9.75px;"/>
            </g>
            <g transform="matrix(0.250211,0,0,0.289892,1283,705.036)">
                <circle cx="1742.56" cy="973.564" r="56.75" style="fill:white;"/>
            </g>
            <g transform="matrix(0.250144,-0.00578012,0.00669679,0.289815,1044.6,724.184)">
                <circle cx="1742.56" cy="973.564" r="56.75" style="fill:white;"/>
            </g>
        </g>
        <g transform="matrix(0.999652,-0.026395,0.026395,0.999652,-1.47798,61.1054)">
            <path d="M2063.39,825.583C2063.39,825.583 2114.37,767.404 2118.06,740.917C2120.42,755.159 2152.85,833.083 2165.6,834.333C2160.85,842.583 2130.35,932.833 2135.1,942.333C2128.1,922.583 2083.18,829.083 2063.39,825.583Z" style="fill:rgb(146,72,227);fill-opacity:0.5;"/>
        </g>
        <path d="M2063.39,825.583C2063.39,825.583 2114.37,767.404 2118.06,740.917C2120.42,755.159 2152.85,833.083 2165.6,834.333C2160.85,842.583 2130.35,932.833 2135.1,942.333C2128.1,922.583 2083.18,829.083 2063.39,825.583Z" style="fill:rgb(237,166,67);stroke:black;stroke-width:7.23px;"/>
        <g transform="matrix(1,0,0,1,21,-2.99999)">
            <path d="M2177.35,1744.08C2177.35,1744.08 2220.35,1697.33 2221.85,1687.83C2225.85,1695.08 2258.35,1751.08 2281.35,1749.58C2274.85,1757.33 2228.1,1837.72 2232.1,1853.97C2230.85,1836.72 2201.6,1750.2 2177.35,1744.08Z" style="fill:rgb(146,72,227);fill-opacity:0.5;"/>
        </g>
        <path d="M2177.35,1744.08C2177.35,1744.08 2220.35,1697.33 2221.85,1687.83C2225.85,1695.08 2258.35,1751.08 2281.35,1749.58C2274.85,1757.33 2228.1,1837.72 2232.1,1853.97C2230.85,1836.72 2201.6,1750.2 2177.35,1744.08Z" style="fill:rgb(237,166,67);stroke:black;stroke-width:7.23px;"/>
        <g transform="matrix(1,0,0,1,20,-5)">
            <path d="M987.892,1572.8C987.892,1572.8 1024.89,1511.13 1022.23,1499.13C1029.56,1505.47 1082.56,1575.8 1105.23,1574.13C1099.23,1588.13 1074.56,1695.58 1080.23,1709.92C1065.56,1682.92 1021.56,1593.68 987.892,1572.8Z" style="fill:rgb(146,72,227);fill-opacity:0.5;"/>
        </g>
        <path d="M987.892,1572.8C987.892,1572.8 1024.89,1511.13 1022.23,1499.13C1029.56,1505.47 1082.56,1575.8 1105.23,1574.13C1099.23,1588.13 1074.56,1695.58 1080.23,1709.92C1065.56,1682.92 1021.56,1593.68 987.892,1572.8Z" style="fill:rgb(237,166,67);stroke:black;stroke-width:7.23px;"/>
        <path d="M1083.25,757.318C1083.25,757.318 997.916,1105.99 965.416,1144.99C991.07,1145.83 1016.41,1145.01 1038.49,1143.69C1068.9,1141.88 1093.12,1137.9 1103.42,1125.15C1106.29,1121.6 1109.78,1119.88 1111.95,1117.08C1121.72,1104.54 1124.14,1095.85 1127.42,1071.15C1131.11,1043.32 1127.92,1040.32 1127.92,1040.32L1200.58,1064.82L1139.42,990.818C1140.26,995.509 1146,942.057 1145.62,891.822C1145.39,863.08 1141.82,832.276 1137.58,817.818C1127.29,782.713 1098.48,759.662 1083.25,757.318Z" style="fill:rgb(176,155,217);fill-opacity:0.5;"/>
        <path d="M1099.25,765.985C1102.06,798.486 1089.14,1121.6 987.082,1145.99C1012.74,1146.83 1016.41,1145.01 1038.49,1143.69C1068.9,1141.88 1093.12,1137.9 1103.42,1125.15C1106.29,1121.6 1109.78,1119.88 1111.95,1117.08C1121.72,1104.54 1124.14,1095.85 1127.42,1071.15C1131.11,1043.32 1127.92,1040.32 1127.92,1040.32L1200.58,1064.82L1139.42,990.818C1140.26,995.509 1146,942.057 1145.62,891.822C1145.39,863.08 1141.82,832.276 1137.58,817.818C1127.29,782.713 1112.48,772.329 1099.25,765.985Z" style="fill:rgb(176,155,217);fill-opacity:0.5;"/>
        <g transform="matrix(1,0,0,1,-51,144)">
            <text x="1499.11px" y="2113.25px" style="font-family:'Aparajita-Bold', 'Aparajita', serif;font-weight:700;font-size:600px;fill:rgb(224,220,232);stroke:black;stroke-width:1px;stroke-linecap:butt;stroke-miterlimit:2;">i</text>
        </g>
    </g>
</svg>
